# Blender v2.79 (sub 0) OBJ File: ''
# www.blender.org
mtllib mashroom.mtl
o Sphere
v 2.166387 1.055822 -1.450252
v 2.166387 2.055822 -1.047145
v 2.436985 1.979701 -1.317743
v 2.666386 1.762928 -1.547145
v 2.819668 1.438505 -1.700426
v 2.451426 1.055822 -1.332185
v 2.549070 1.979701 -1.047145
v 2.873493 1.762928 -1.047145
v 3.090266 1.438505 -1.047145
v 2.569493 1.055822 -1.047145
v 2.436985 1.979701 -0.776547
v 2.666386 1.762928 -0.547145
v 2.819668 1.438505 -0.393864
v 2.451426 1.055822 -0.762106
v 2.166387 1.979701 -0.664462
v 2.166387 1.762928 -0.340039
v 2.166387 1.438505 -0.123266
v 2.166387 1.055822 -0.644038
v 1.895789 1.979701 -0.776547
v 1.666387 1.762928 -0.547145
v 1.513105 1.438505 -0.393864
v 1.881347 1.055822 -0.762106
v 1.783703 1.979701 -1.047145
v 1.459280 1.762928 -1.047145
v 1.242507 1.438505 -1.047145
v 1.763280 1.055822 -1.047145
v 1.895789 1.979701 -1.317743
v 1.666387 1.762928 -1.547145
v 1.513105 1.438505 -1.700426
v 1.881347 1.055822 -1.332184
v 2.166387 1.979701 -1.429828
v 2.166387 1.762928 -1.754251
v 2.166387 1.438505 -1.971024
v 2.166387 1.055822 -2.047145
v 2.873493 1.055822 -1.754252
v 3.166386 1.055822 -1.047145
v 2.873493 1.055822 -0.340038
v 2.166387 1.055822 -0.047145
v 1.459280 1.055822 -0.340039
v 1.166387 1.055822 -1.047145
v 1.459280 1.055822 -1.754252
v 2.166387 -0.379511 -1.047145
v 1.798314 0.167235 -1.415218
v 1.798314 0.167235 -0.679072
v 2.534459 0.167235 -1.415218
v 2.534459 0.167235 -0.679072
v 2.166387 0.167235 -1.567678
v 2.686920 0.167235 -1.047145
v 2.166387 0.167235 -0.526612
v 1.645853 0.167235 -1.047145
v 1.798314 -0.177093 -1.415218
v 1.798314 -0.177093 -0.679072
v 2.534459 -0.177093 -1.415218
v 2.534459 -0.177093 -0.679072
v 2.166387 -0.177093 -1.567678
v 2.686920 -0.177093 -1.047145
v 2.166387 -0.177093 -0.526612
v 1.645853 -0.177093 -1.047145
v 1.958197 -0.379511 -1.255334
v 1.958197 -0.379511 -0.838956
v 2.374576 -0.379511 -1.255334
v 2.374576 -0.379511 -0.838956
v 2.166387 -0.379511 -1.341569
v 2.460811 -0.379511 -1.047145
v 2.166387 -0.379511 -0.752721
v 1.871963 -0.379511 -1.047145
vt 0.399061 0.332209
vt 0.345567 0.311473
vt 0.342433 0.270824
vt 0.394922 0.247660
vt 0.464924 0.361181
vt 0.461980 0.221574
vt 0.294931 0.294931
vt 0.556348 0.403214
vt 0.556348 0.186649
vt 0.332209 0.190802
vt 0.361181 0.124938
vt 0.311473 0.244295
vt 0.403213 0.033514
vt 0.221574 0.127882
vt 0.186649 0.033514
vt 0.270823 0.247429
vt 0.247660 0.194941
vt 0.124938 0.228681
vt 0.033514 0.186649
vt 0.244295 0.278389
vt 0.190802 0.257653
vt 0.194941 0.342202
vt 0.127882 0.368288
vt 0.247429 0.319039
vt 0.033514 0.403214
vt 0.257653 0.399061
vt 0.228681 0.464924
vt 0.278389 0.345567
vt 0.186649 0.556348
vt 0.368288 0.461980
vt 0.403213 0.556348
vt 0.319039 0.342433
vt 0.342202 0.394922
vt 0.590025 0.614635
vt 0.596698 0.536641
vt 0.804788 0.545481
vt 0.815352 0.645355
vt 0.598158 0.459947
vt 0.597936 0.384367
vt 0.791817 0.384788
vt 0.796299 0.461111
vt 0.597949 0.309108
vt 0.599100 0.233599
vt 0.794195 0.241555
vt 0.791043 0.312444
vt 0.601591 0.157316
vt 0.604838 0.079688
vt 0.816510 0.092624
vt 0.802091 0.169676
vt 0.237809 0.873972
vt 0.284110 0.827671
vt 0.401149 0.876150
vt 0.286288 0.991011
vt 0.172329 0.873972
vt 0.123850 0.991011
vt 0.126028 0.827671
vt 0.008989 0.876150
vt 0.126028 0.762191
vt 0.008989 0.713712
vt 0.172329 0.715890
vt 0.123850 0.598852
vt 0.237809 0.715890
vt 0.286288 0.598852
vt 0.284110 0.762191
vt 0.401148 0.713712
vt 0.853711 0.378991
vt 0.861964 0.450593
vt 0.853806 0.244489
vt 0.851058 0.310830
vt 0.883425 0.111507
vt 0.863286 0.178689
vt 0.878013 0.529236
vt 0.606852 0.000163
vt 0.840582 0.000163
vt 0.937788 0.438493
vt 0.957470 0.502987
vt 0.920700 0.312964
vt 0.926315 0.374957
vt 0.926373 0.194914
vt 0.920421 0.252812
vt 0.925184 0.035377
vt 0.972999 0.093866
vt 0.941494 0.140279
vt 0.913520 0.629483
vt 0.470630 0.650354
vt 0.445641 0.710684
vt 0.410301 0.675344
vt 0.410301 0.625365
vt 0.495619 0.590025
vt 0.445641 0.590025
vt 0.530959 0.675344
vt 0.495619 0.710684
vt 0.530959 0.625365
vt 0.991595 0.566086
vn 0.2243 0.8103 -0.5414
vn 0.3256 0.5253 -0.7862
vn 0.0805 0.9776 -0.1945
vn 0.3764 0.1807 -0.9087
vn 0.7862 0.5253 -0.3256
vn 0.1945 0.9776 -0.0805
vn 0.9087 0.1807 -0.3764
vn 0.5414 0.8103 -0.2243
vn 0.9087 0.1807 0.3764
vn 0.5414 0.8103 0.2243
vn 0.7862 0.5253 0.3256
vn 0.1945 0.9776 0.0805
vn 0.3764 0.1807 0.9087
vn 0.2243 0.8103 0.5414
vn 0.3256 0.5253 0.7862
vn 0.0805 0.9776 0.1945
vn -0.3256 0.5253 0.7862
vn -0.0805 0.9776 0.1945
vn -0.3764 0.1807 0.9087
vn -0.2243 0.8103 0.5414
vn -0.7862 0.5253 0.3256
vn -0.1945 0.9776 0.0805
vn -0.9087 0.1807 0.3764
vn -0.5414 0.8103 0.2243
vn -0.9087 0.1807 -0.3764
vn -0.5414 0.8103 -0.2243
vn -0.7862 0.5253 -0.3256
vn -0.1945 0.9776 -0.0805
vn -0.2243 0.8103 -0.5414
vn 0.3799 0.1212 -0.9171
vn 0.9171 0.1212 0.3799
vn -0.3256 0.5253 -0.7862
vn -0.0805 0.9776 -0.1945
vn -0.3799 0.1212 0.9171
vn -0.9171 0.1212 -0.3799
vn -0.3764 0.1807 -0.9087
vn 0.0000 -1.0000 0.0000
vn 0.9239 0.0000 0.3827
vn -0.3827 0.0000 0.9239
vn -0.9239 0.0000 -0.3827
vn 0.9239 0.0000 -0.3827
vn -0.3799 0.1212 -0.9171
vn -0.9171 0.1212 0.3799
vn 0.3799 0.1212 0.9171
vn 0.9171 0.1212 -0.3799
vn 0.6429 -0.7182 -0.2663
vn 0.2663 -0.7182 0.6429
vn -0.6429 -0.7182 0.2663
vn -0.2663 -0.7182 -0.6429
vn 0.3827 0.0000 -0.9239
vn -0.3827 0.0000 -0.9239
vn -0.9239 0.0000 0.3827
vn 0.3827 0.0000 0.9239
vn -0.6429 -0.7182 -0.2663
vn -0.2663 -0.7182 0.6429
vn 0.6429 -0.7182 0.2663
vn 0.2663 -0.7182 -0.6429
usemtl Material.001
s 1
f 32/1/1 31/2/1 3/3/1 4/4/1
f 33/5/2 32/1/2 4/4/2 5/6/2
f 31/2/3 2/7/3 3/3/3
f 34/8/4 33/5/4 5/6/4 35/9/4
f 5/6/5 4/4/5 8/10/5 9/11/5
f 3/3/6 2/7/6 7/12/6
f 35/9/7 5/6/7 9/11/7 36/13/7
f 4/4/8 3/3/8 7/12/8 8/10/8
f 36/13/9 9/11/9 13/14/9 37/15/9
f 8/10/10 7/12/10 11/16/10 12/17/10
f 9/11/11 8/10/11 12/17/11 13/14/11
f 7/12/12 2/7/12 11/16/12
f 37/15/13 13/14/13 17/18/13 38/19/13
f 12/17/14 11/16/14 15/20/14 16/21/14
f 13/14/15 12/17/15 16/21/15 17/18/15
f 11/16/16 2/7/16 15/20/16
f 17/18/17 16/21/17 20/22/17 21/23/17
f 15/20/18 2/7/18 19/24/18
f 38/19/19 17/18/19 21/23/19 39/25/19
f 16/21/20 15/20/20 19/24/20 20/22/20
f 21/23/21 20/22/21 24/26/21 25/27/21
f 19/24/22 2/7/22 23/28/22
f 39/25/23 21/23/23 25/27/23 40/29/23
f 20/22/24 19/24/24 23/28/24 24/26/24
f 40/29/25 25/27/25 29/30/25 41/31/25
f 24/26/26 23/28/26 27/32/26 28/33/26
f 25/27/27 24/26/27 28/33/27 29/30/27
f 23/28/28 2/7/28 27/32/28
f 28/33/29 27/32/29 31/2/29 32/1/29
f 1/34/30 6/35/30 45/36/30 47/37/30
f 10/38/31 14/39/31 46/40/31 48/41/31
f 29/30/32 28/33/32 32/1/32 33/5/32
f 27/32/33 2/7/33 31/2/33
f 18/42/34 22/43/34 44/44/34 49/45/34
f 26/46/35 30/47/35 43/48/35 50/49/35
f 41/31/36 29/30/36 33/5/36 34/8/36
f 6/50/37 1/51/37 34/52/37 35/53/37
f 10/54/37 6/50/37 35/53/37 36/55/37
f 14/56/37 10/54/37 36/55/37 37/57/37
f 18/58/37 14/56/37 37/57/37 38/59/37
f 22/60/37 18/58/37 38/59/37 39/61/37
f 26/62/37 22/60/37 39/61/37 40/63/37
f 30/64/37 26/62/37 40/63/37 41/65/37
f 1/51/37 30/64/37 41/65/37 34/52/37
f 48/41/38 46/40/38 54/66/38 56/67/38
f 49/45/39 44/44/39 52/68/39 57/69/39
f 50/49/40 43/48/40 51/70/40 58/71/40
f 45/36/41 48/41/41 56/67/41 53/72/41
f 30/47/42 1/73/42 47/74/42 43/48/42
f 22/43/43 26/46/43 50/49/43 44/44/43
f 14/39/44 18/42/44 49/45/44 46/40/44
f 6/35/45 10/38/45 48/41/45 45/36/45
f 53/72/46 56/67/46 64/75/46 61/76/46
f 54/66/47 57/69/47 65/77/47 62/78/47
f 52/68/48 58/71/48 66/79/48 60/80/48
f 51/70/49 55/81/49 63/82/49 59/83/49
f 47/37/50 45/36/50 53/72/50 55/84/50
f 43/48/51 47/74/51 55/81/51 51/70/51
f 44/44/52 50/49/52 58/71/52 52/68/52
f 46/40/53 49/45/53 57/69/53 54/66/53
f 42/85/37 60/86/37 66/87/37 59/88/37
f 61/89/37 42/85/37 59/88/37 63/90/37
f 62/91/37 65/92/37 60/86/37 42/85/37
f 64/93/37 62/91/37 42/85/37 61/89/37
f 58/71/54 51/70/54 59/83/54 66/79/54
f 57/69/55 52/68/55 60/80/55 65/77/55
f 56/67/56 54/66/56 62/78/56 64/75/56
f 55/84/57 53/72/57 61/76/57 63/94/57
